<svg width="32.000000" height="32.000000" viewBox="0 0 32 32" fill="none" xmlns="http://www.w3.org/2000/svg" xmlns:xlink="http://www.w3.org/1999/xlink">
	<desc>
			Created with Pixso.
	</desc>
	<defs>
		<clipPath id="clip12164_565">
			<rect id="wind" rx="-0.500000" width="31.000000" height="31.000000" transform="translate(0.500000 0.500000)" fill="white" fill-opacity="0"/>
		</clipPath>
	</defs>
	<rect id="wind" rx="-0.500000" width="31.000000" height="31.000000" transform="translate(0.500000 0.500000)" fill="#FFFFFF" fill-opacity="0"/>
	<g clip-path="url(#clip12164_565)">
		<path id="Vector" d="M25 4C23.67 4 22.4 4.52 21.46 5.46C20.52 6.4 20 7.67 20 9C20 9.26 19.89 9.51 19.7 9.7C19.51 9.89 19.26 10 19 10C18.73 10 18.48 9.89 18.29 9.7C18.1 9.51 18 9.26 18 9C18 7.61 18.41 6.26 19.17 5.11C19.94 3.95 21.04 3.06 22.32 2.53C23.6 2 25 1.86 26.36 2.13C27.72 2.4 28.97 3.07 29.94 4.05C30.92 5.02 31.59 6.27 31.86 7.63C32.13 8.99 31.99 10.39 31.46 11.67C30.93 12.95 30.04 14.05 28.88 14.82C27.73 15.58 26.38 16 25 16L1 16C0.73 16 0.48 15.89 0.29 15.7C0.1 15.51 0 15.26 0 15C0 14.73 0.1 14.48 0.29 14.29C0.48 14.1 0.73 14 1 14L25 14C26.32 14 27.59 13.47 28.53 12.53C29.47 11.59 30 10.32 30 9C30 7.67 29.47 6.4 28.53 5.46C27.59 4.52 26.32 4 25 4ZM11 6C10.46 6 9.96 6.21 9.58 6.58C9.21 6.96 9 7.46 9 8C9 8.26 8.89 8.51 8.7 8.7C8.51 8.89 8.26 9 8 9C7.73 9 7.48 8.89 7.29 8.7C7.1 8.51 7 8.26 7 8C7 7.2 7.23 6.43 7.67 5.77C8.11 5.11 8.73 4.6 9.46 4.3C10.2 4 11 3.92 11.78 4.07C12.55 4.23 13.26 4.61 13.82 5.17C14.38 5.73 14.76 6.44 14.92 7.21C15.07 7.99 14.99 8.79 14.69 9.53C14.39 10.26 13.88 10.88 13.22 11.32C12.56 11.76 11.79 12 11 12L1 12C0.73 12 0.48 11.89 0.29 11.7C0.1 11.51 0 11.26 0 11C0 10.73 0.1 10.48 0.29 10.29C0.48 10.1 0.73 10 1 10L11 10C11.53 10 12.03 9.78 12.41 9.41C12.78 9.03 13 8.53 13 8C13 7.46 12.78 6.96 12.41 6.58C12.03 6.21 11.53 6 11 6ZM0 19C0 18.73 0.1 18.48 0.29 18.29C0.48 18.1 0.73 18 1 18L21.08 18C22.27 18 23.43 18.35 24.41 19.01C25.4 19.67 26.17 20.6 26.62 21.7C27.08 22.8 27.2 24 26.96 25.17C26.73 26.33 26.16 27.4 25.32 28.24C24.48 29.08 23.41 29.65 22.25 29.88C21.09 30.11 19.88 29.99 18.78 29.54C17.69 29.08 16.75 28.32 16.09 27.33C15.43 26.34 15.08 25.18 15.08 24C15.08 23.73 15.18 23.48 15.37 23.29C15.56 23.1 15.81 23 16.08 23C16.34 23 16.6 23.1 16.79 23.29C16.97 23.48 17.08 23.73 17.08 24C17.08 24.79 17.31 25.56 17.75 26.22C18.19 26.88 18.82 27.39 19.55 27.69C20.28 27.99 21.08 28.07 21.86 27.92C22.64 27.76 23.35 27.38 23.91 26.82C24.47 26.26 24.85 25.55 25 24.78C25.16 24 25.08 23.2 24.77 22.46C24.47 21.73 23.96 21.11 23.3 20.67C22.64 20.23 21.87 20 21.08 20L1 20C0.73 20 0.48 19.89 0.29 19.7C0.1 19.51 0 19.26 0 19Z" fill="#101828" fill-opacity="1.000000" fill-rule="nonzero"/>
	</g>
</svg>
