<svg width="32.000000" height="32.000000" viewBox="0 0 32 32" fill="none" xmlns="http://www.w3.org/2000/svg" xmlns:xlink="http://www.w3.org/1999/xlink">
	<desc>
			Created with Pixso.
	</desc>
	<defs>
		<clipPath id="clip12164_600">
			<rect id="bi:grid-3x3-gap" rx="-0.500000" width="31.000000" height="31.000000" transform="translate(0.500000 0.500000)" fill="white" fill-opacity="0"/>
		</clipPath>
	</defs>
	<rect id="bi:grid-3x3-gap" rx="-0.500000" width="31.000000" height="31.000000" transform="translate(0.500000 0.500000)" fill="#FFFFFF" fill-opacity="0"/>
	<g clip-path="url(#clip12164_600)">
		<path id="Vector" d="M8 4L8 8L4 8L4 4L8 4ZM10 28L10 24C10 23.46 9.78 22.96 9.41 22.58C9.03 22.21 8.53 22 8 22L4 22C3.46 22 2.96 22.21 2.58 22.58C2.21 22.96 2 23.46 2 24L2 28C2 28.53 2.21 29.03 2.58 29.41C2.96 29.78 3.46 30 4 30L8 30C8.53 30 9.03 29.78 9.41 29.41C9.78 29.03 10 28.53 10 28ZM10 18L10 14C10 13.46 9.78 12.96 9.41 12.58C9.03 12.21 8.53 12 8 12L4 12C3.46 12 2.96 12.21 2.58 12.58C2.21 12.96 2 13.46 2 14L2 18C2 18.53 2.21 19.03 2.58 19.41C2.96 19.78 3.46 20 4 20L8 20C8.53 20 9.03 19.78 9.41 19.41C9.78 19.03 10 18.53 10 18ZM10 8L10 4C10 3.46 9.78 2.96 9.41 2.58C9.03 2.21 8.53 2 8 2L4 2C3.46 2 2.96 2.21 2.58 2.58C2.21 2.96 2 3.46 2 4L2 8C2 8.53 2.21 9.03 2.58 9.41C2.96 9.78 3.46 10 4 10L8 10C8.53 10 9.03 9.78 9.41 9.41C9.78 9.03 10 8.53 10 8ZM20 28L20 24C20 23.46 19.78 22.96 19.41 22.58C19.03 22.21 18.53 22 18 22L14 22C13.46 22 12.96 22.21 12.58 22.58C12.21 22.96 12 23.46 12 24L12 28C12 28.53 12.21 29.03 12.58 29.41C12.96 29.78 13.46 30 14 30L18 30C18.53 30 19.03 29.78 19.41 29.41C19.78 29.03 20 28.53 20 28ZM20 18L20 14C20 13.46 19.78 12.96 19.41 12.58C19.03 12.21 18.53 12 18 12L14 12C13.46 12 12.96 12.21 12.58 12.58C12.21 12.96 12 13.46 12 14L12 18C12 18.53 12.21 19.03 12.58 19.41C12.96 19.78 13.46 20 14 20L18 20C18.53 20 19.03 19.78 19.41 19.41C19.78 19.03 20 18.53 20 18ZM20 8L20 4C20 3.46 19.78 2.96 19.41 2.58C19.03 2.21 18.53 2 18 2L14 2C13.46 2 12.96 2.21 12.58 2.58C12.21 2.96 12 3.46 12 4L12 8C12 8.53 12.21 9.03 12.58 9.41C12.96 9.78 13.46 10 14 10L18 10C18.53 10 19.03 9.78 19.41 9.41C19.78 9.03 20 8.53 20 8ZM18 4L18 8L14 8L14 4L18 4ZM28 4L28 8L24 8L24 4L28 4ZM8 14L8 18L4 18L4 14L8 14ZM18 14L18 18L14 18L14 14L18 14ZM28 14L24 14L24 18L28 18L28 14ZM8 24L8 28L4 28L4 24L8 24ZM18 24L18 28L14 28L14 24L18 24ZM28 24L28 28L24 28L24 24L28 24ZM24 2C23.46 2 22.96 2.21 22.58 2.58C22.21 2.96 22 3.46 22 4L22 8C22 8.53 22.21 9.03 22.58 9.41C22.96 9.78 23.46 10 24 10L28 10C28.53 10 29.03 9.78 29.41 9.41C29.78 9.03 30 8.53 30 8L30 4C30 3.46 29.78 2.96 29.41 2.58C29.03 2.21 28.53 2 28 2L24 2ZM22 14C22 13.46 22.21 12.96 22.58 12.58C22.96 12.21 23.46 12 24 12L28 12C28.53 12 29.03 12.21 29.41 12.58C29.78 12.96 30 13.46 30 14L30 18C30 18.53 29.78 19.03 29.41 19.41C29.03 19.78 28.53 20 28 20L24 20C23.46 20 22.96 19.78 22.58 19.41C22.21 19.03 22 18.53 22 18L22 14ZM24 22C23.46 22 22.96 22.21 22.58 22.58C22.21 22.96 22 23.46 22 24L22 28C22 28.53 22.21 29.03 22.58 29.41C22.96 29.78 23.46 30 24 30L28 30C28.53 30 29.03 29.78 29.41 29.41C29.78 29.03 30 28.53 30 28L30 24C30 23.46 29.78 22.96 29.41 22.58C29.03 22.21 28.53 22 28 22L24 22Z" fill="#101828" fill-opacity="1.000000" fill-rule="nonzero"/>
	</g>
</svg>
