<svg width="32.000000" height="32.000000" viewBox="0 0 32 32" fill="none" xmlns="http://www.w3.org/2000/svg" xmlns:xlink="http://www.w3.org/1999/xlink">
	<desc>
			Created with Pixso.
	</desc>
	<defs>
		<clipPath id="clip12164_590">
			<rect id="bi:grid-1x2" rx="-0.500000" width="31.000000" height="31.000000" transform="translate(0.500000 0.500000)" fill="white" fill-opacity="0"/>
		</clipPath>
	</defs>
	<rect id="bi:grid-1x2" rx="-0.500000" width="31.000000" height="31.000000" transform="translate(0.500000 0.500000)" fill="#FFFFFF" fill-opacity="0"/>
	<g clip-path="url(#clip12164_590)">
		<path id="Vector" d="M12 2L2 2L2 30L12 30L12 2ZM30 2L20 2L20 12L30 12L30 2ZM30 20L30 30L20 30L20 20L30 20ZM0 2C0 1.46 0.21 0.96 0.58 0.58C0.96 0.21 1.46 0 2 0L12 0C12.53 0 13.03 0.21 13.41 0.58C13.78 0.96 14 1.46 14 2L14 30C14 30.53 13.78 31.03 13.41 31.41C13.03 31.78 12.53 32 12 32L2 32C1.46 32 0.96 31.78 0.58 31.41C0.21 31.03 0 30.53 0 30L0 2ZM18 2C18 1.46 18.21 0.96 18.58 0.58C18.96 0.21 19.46 0 20 0L30 0C30.53 0 31.03 0.21 31.41 0.58C31.78 0.96 32 1.46 32 2L32 12C32 12.53 31.78 13.03 31.41 13.41C31.03 13.78 30.53 14 30 14L20 14C19.46 14 18.96 13.78 18.58 13.41C18.21 13.03 18 12.53 18 12L18 2ZM20 18C19.46 18 18.96 18.21 18.58 18.58C18.21 18.96 18 19.46 18 20L18 30C18 30.53 18.21 31.03 18.58 31.41C18.96 31.78 19.46 32 20 32L30 32C30.53 32 31.03 31.78 31.41 31.41C31.78 31.03 32 30.53 32 30L32 20C32 19.46 31.78 18.96 31.41 18.58C31.03 18.21 30.53 18 30 18L20 18Z" fill="#101828" fill-opacity="1.000000" fill-rule="nonzero"/>
	</g>
</svg>
