<svg width="32.000000" height="32.000000" viewBox="0 0 32 32" fill="none" xmlns="http://www.w3.org/2000/svg" xmlns:xlink="http://www.w3.org/1999/xlink">
	<desc>
			Created with Pixso.
	</desc>
	<defs>
		<clipPath id="clip12164_595">
			<rect id="bi:grid" rx="-0.500000" width="31.000000" height="31.000000" transform="translate(0.500000 0.500000)" fill="white" fill-opacity="0"/>
		</clipPath>
	</defs>
	<rect id="bi:grid" rx="-0.500000" width="31.000000" height="31.000000" transform="translate(0.500000 0.500000)" fill="#FFFFFF" fill-opacity="0"/>
	<g clip-path="url(#clip12164_595)">
		<path id="Vector" d="M2 5C2 4.2 2.31 3.44 2.87 2.87C3.44 2.31 4.2 2 5 2L11 2C11.79 2 12.55 2.31 13.12 2.87C13.68 3.44 14 4.2 14 5L14 11C14 11.79 13.68 12.55 13.12 13.12C12.55 13.68 11.79 14 11 14L5 14C4.2 14 3.44 13.68 2.87 13.12C2.31 12.55 2 11.79 2 11L2 5ZM5 4C4.73 4 4.48 4.1 4.29 4.29C4.1 4.48 4 4.73 4 5L4 11C4 11.26 4.1 11.51 4.29 11.7C4.48 11.89 4.73 12 5 12L11 12C11.26 12 11.51 11.89 11.7 11.7C11.89 11.51 12 11.26 12 11L12 5C12 4.73 11.89 4.48 11.7 4.29C11.51 4.1 11.26 4 11 4L5 4ZM18 5C18 4.2 18.31 3.44 18.87 2.87C19.44 2.31 20.2 2 21 2L27 2C27.79 2 28.55 2.31 29.12 2.87C29.68 3.44 30 4.2 30 5L30 11C30 11.79 29.68 12.55 29.12 13.12C28.55 13.68 27.79 14 27 14L21 14C20.2 14 19.44 13.68 18.87 13.12C18.31 12.55 18 11.79 18 11L18 5ZM21 4C20.73 4 20.48 4.1 20.29 4.29C20.1 4.48 20 4.73 20 5L20 11C20 11.26 20.1 11.51 20.29 11.7C20.48 11.89 20.73 12 21 12L27 12C27.26 12 27.51 11.89 27.7 11.7C27.89 11.51 28 11.26 28 11L28 5C28 4.73 27.89 4.48 27.7 4.29C27.51 4.1 27.26 4 27 4L21 4ZM2 21C2 20.2 2.31 19.44 2.87 18.87C3.44 18.31 4.2 18 5 18L11 18C11.79 18 12.55 18.31 13.12 18.87C13.68 19.44 14 20.2 14 21L14 27C14 27.79 13.68 28.55 13.12 29.12C12.55 29.68 11.79 30 11 30L5 30C4.2 30 3.44 29.68 2.87 29.12C2.31 28.55 2 27.79 2 27L2 21ZM5 20C4.73 20 4.48 20.1 4.29 20.29C4.1 20.48 4 20.73 4 21L4 27C4 27.26 4.1 27.51 4.29 27.7C4.48 27.89 4.73 28 5 28L11 28C11.26 28 11.51 27.89 11.7 27.7C11.89 27.51 12 27.26 12 27L12 21C12 20.73 11.89 20.48 11.7 20.29C11.51 20.1 11.26 20 11 20L5 20ZM18 21C18 20.2 18.31 19.44 18.87 18.87C19.44 18.31 20.2 18 21 18L27 18C27.79 18 28.55 18.31 29.12 18.87C29.68 19.44 30 20.2 30 21L30 27C30 27.79 29.68 28.55 29.12 29.12C28.55 29.68 27.79 30 27 30L21 30C20.2 30 19.44 29.68 18.87 29.12C18.31 28.55 18 27.79 18 27L18 21ZM21 20C20.73 20 20.48 20.1 20.29 20.29C20.1 20.48 20 20.73 20 21L20 27C20 27.26 20.1 27.51 20.29 27.7C20.48 27.89 20.73 28 21 28L27 28C27.26 28 27.51 27.89 27.7 27.7C27.89 27.51 28 27.26 28 27L28 21C28 20.73 27.89 20.48 27.7 20.29C27.51 20.1 27.26 20 27 20L21 20Z" fill="#101828" fill-opacity="1.000000" fill-rule="nonzero"/>
	</g>
</svg>
