<svg width="32.000000" height="32.000000" viewBox="0 0 32 32" fill="none" xmlns="http://www.w3.org/2000/svg" xmlns:xlink="http://www.w3.org/1999/xlink">
	<desc>
			Created with Pixso.
	</desc>
	<defs>
		<clipPath id="clip12164_582">
			<rect id="bi:droplet" rx="-0.500000" width="31.000000" height="31.000000" transform="translate(0.500000 0.500000)" fill="white" fill-opacity="0"/>
		</clipPath>
	</defs>
	<rect id="bi:droplet" rx="-0.500000" width="31.000000" height="31.000000" transform="translate(0.500000 0.500000)" fill="#FFFFFF" fill-opacity="0"/>
	<g clip-path="url(#clip12164_582)">
		<path id="Vector" d="M14.41 1.6C15.37 0.58 16 0 16 0C16.21 0.72 16.46 1.41 16.74 2.07C18.36 5.96 20.88 8.77 23.13 11.27C25.75 14.19 28 16.69 28 20C28 23.18 26.73 26.23 24.48 28.48C22.23 30.73 19.18 32 16 32C12.81 32 9.76 30.73 7.51 28.48C5.26 26.23 4 23.18 4 20C4 13.33 11.15 5.03 14.41 1.6ZM15.24 3.64C13.96 5.03 12.74 6.47 11.58 7.98C10.13 9.88 8.71 11.99 7.66 14.12C6.6 16.26 6 18.27 6 20C6 22.65 7.05 25.19 8.92 27.07C10.8 28.94 13.34 30 16 30C18.65 30 21.19 28.94 23.07 27.07C24.94 25.19 26 22.65 26 20C26 17.59 24.4 15.68 21.63 12.6L21.57 12.53C19.5 10.22 17 7.44 15.24 3.64Z" fill="#101828" fill-opacity="1.000000" fill-rule="evenodd"/>
		<path id="Vector" d="M9.1 15.55C10.74 12.27 12.54 10.04 13.29 9.29L14.7 10.7C14.12 11.28 12.45 13.33 10.89 16.44L9.1 15.55Z" fill="#101828" fill-opacity="1.000000" fill-rule="evenodd"/>
	</g>
</svg>
