<svg width="20.000000" height="20.000000" viewBox="0 0 20 20" fill="none" xmlns="http://www.w3.org/2000/svg" xmlns:xlink="http://www.w3.org/1999/xlink">
	<desc>
			Created with Pixso.
	</desc>
	<defs>
		<clipPath id="clip12068_445">
			<rect rx="-0.500000" width="19.000000" height="19.000000" transform="translate(0.500000 0.500000)" fill="white" fill-opacity="0"/>
		</clipPath>
	</defs>
	<rect rx="-0.500000" width="19.000000" height="19.000000" transform="translate(0.500000 0.500000)" fill="#FFFFFF" fill-opacity="0"/>
	<g clip-path="url(#clip12068_445)">
		<path d="M3.75 3.12C3.75 2.95 3.81 2.8 3.93 2.68C4.05 2.56 4.2 2.5 4.37 2.5L10.62 2.5C10.79 2.5 10.94 2.56 11.06 2.68C11.18 2.8 11.25 2.95 11.25 3.12L11.25 9.37C11.25 9.54 11.18 9.69 11.06 9.81C10.94 9.93 10.79 10 10.62 10L4.37 10C4.2 10 4.05 9.93 3.93 9.81C3.81 9.69 3.75 9.54 3.75 9.37L3.75 3.12Z" fill="#101828" fill-opacity="1.000000" fill-rule="nonzero"/>
		<path d="M1.25 2.5C1.25 1.83 1.51 1.2 1.98 0.73C2.45 0.26 3.08 0 3.75 0L11.25 0C11.91 0 12.54 0.26 13.01 0.73C13.48 1.2 13.75 1.83 13.75 2.5L13.75 12.5C14.41 12.5 15.04 12.76 15.51 13.23C15.98 13.7 16.25 14.33 16.25 15L16.25 15.62C16.25 15.79 16.31 15.94 16.43 16.06C16.55 16.18 16.7 16.25 16.87 16.25C17.04 16.25 17.19 16.18 17.31 16.06C17.43 15.94 17.5 15.79 17.5 15.62L17.5 10L16.87 10C16.7 10 16.55 9.93 16.43 9.81C16.31 9.69 16.25 9.54 16.25 9.37L16.25 5.46C16.25 5.3 16.31 5.14 16.43 5.02C16.55 4.9 16.7 4.84 16.87 4.84L18.74 4.84C18.73 4.24 18.67 3.72 18.49 3.31C18.39 3.07 18.22 2.87 18 2.74C17.77 2.6 17.42 2.5 16.87 2.5C16.7 2.5 16.55 2.43 16.43 2.31C16.31 2.19 16.25 2.04 16.25 1.87C16.25 1.7 16.31 1.55 16.43 1.43C16.55 1.31 16.7 1.25 16.87 1.25C17.58 1.24 18.16 1.38 18.64 1.66C19.11 1.95 19.43 2.35 19.63 2.8C20 3.62 20 4.63 20 5.4L20 9.37C20 9.45 19.98 9.53 19.95 9.61C19.92 9.68 19.87 9.75 19.81 9.81C19.75 9.87 19.69 9.92 19.61 9.95C19.53 9.98 19.45 10 19.37 10L18.75 10L18.75 15.62C18.75 16.12 18.55 16.59 18.2 16.95C17.84 17.3 17.37 17.5 16.87 17.5C16.37 17.5 15.9 17.3 15.54 16.95C15.19 16.59 15 16.12 15 15.62L15 15C15 14.66 14.86 14.35 14.63 14.11C14.39 13.88 14.08 13.75 13.75 13.75L13.75 18.75L14.37 18.75C14.54 18.75 14.69 18.81 14.81 18.93C14.93 19.05 15 19.2 15 19.37C15 19.54 14.93 19.69 14.81 19.81C14.69 19.93 14.54 20 14.37 20L0.62 20C0.45 20 0.3 19.93 0.18 19.81C0.06 19.69 0 19.54 0 19.37C0 19.2 0.06 19.05 0.18 18.93C0.3 18.81 0.45 18.75 0.62 18.75L1.25 18.75L1.25 2.5ZM12.5 2.5C12.5 2.16 12.36 1.85 12.13 1.61C11.89 1.38 11.58 1.25 11.25 1.25L3.75 1.25C3.41 1.25 3.1 1.38 2.86 1.61C2.63 1.85 2.5 2.16 2.5 2.5L2.5 18.75L12.5 18.75L12.5 2.5Z" fill="#101828" fill-opacity="1.000000" fill-rule="nonzero"/>
	</g>
</svg>
