<svg width="32.000000" height="32.000000" viewBox="0 0 32 32" fill="none" xmlns="http://www.w3.org/2000/svg" xmlns:xlink="http://www.w3.org/1999/xlink">
	<desc>
			Created with Pixso.
	</desc>
	<defs>
		<clipPath id="clip12164_569">
			<rect id="diagram" rx="-0.500000" width="31.000000" height="31.000000" transform="translate(0.500000 0.500000)" fill="white" fill-opacity="0"/>
		</clipPath>
	</defs>
	<rect id="diagram" rx="-0.500000" width="31.000000" height="31.000000" transform="translate(0.500000 0.500000)" fill="#FFFFFF" fill-opacity="0"/>
	<g clip-path="url(#clip12164_569)">
		<path id="Vector" d="M12 7C12 6.2 12.31 5.44 12.87 4.87C13.44 4.31 14.2 4 15 4L17 4C17.79 4 18.55 4.31 19.12 4.87C19.68 5.44 20 6.2 20 7L20 9C20 9.79 19.68 10.55 19.12 11.12C18.55 11.68 17.79 12 17 12L17 14L28 14C28.26 14 28.51 14.1 28.7 14.29C28.89 14.48 29 14.73 29 15L29 17C29 17.26 28.89 17.51 28.7 17.7C28.51 17.89 28.26 18 28 18C27.73 18 27.48 17.89 27.29 17.7C27.1 17.51 27 17.26 27 17L27 16L17 16L17 17C17 17.26 16.89 17.51 16.7 17.7C16.51 17.89 16.26 18 16 18C15.73 18 15.48 17.89 15.29 17.7C15.1 17.51 15 17.26 15 17L15 16L5 16L5 17C5 17.26 4.89 17.51 4.7 17.7C4.51 17.89 4.26 18 4 18C3.73 18 3.48 17.89 3.29 17.7C3.1 17.51 3 17.26 3 17L3 15C3 14.73 3.1 14.48 3.29 14.29C3.48 14.1 3.73 14 4 14L15 14L15 12C14.2 12 13.44 11.68 12.87 11.12C12.31 10.55 12 9.79 12 9L12 7ZM17 10C17.26 10 17.51 9.89 17.7 9.7C17.89 9.51 18 9.26 18 9L18 7C18 6.73 17.89 6.48 17.7 6.29C17.51 6.1 17.26 6 17 6L15 6C14.73 6 14.48 6.1 14.29 6.29C14.1 6.48 14 6.73 14 7L14 9C14 9.26 14.1 9.51 14.29 9.7C14.48 9.89 14.73 10 15 10L17 10ZM0 23C0 22.2 0.31 21.44 0.87 20.87C1.44 20.31 2.2 20 3 20L5 20C5.79 20 6.55 20.31 7.12 20.87C7.68 21.44 8 22.2 8 23L8 25C8 25.79 7.68 26.55 7.12 27.12C6.55 27.68 5.79 28 5 28L3 28C2.2 28 1.44 27.68 0.87 27.12C0.31 26.55 0 25.79 0 25L0 23ZM3 22C2.73 22 2.48 22.1 2.29 22.29C2.1 22.48 2 22.73 2 23L2 25C2 25.26 2.1 25.51 2.29 25.7C2.48 25.89 2.73 26 3 26L5 26C5.26 26 5.51 25.89 5.7 25.7C5.89 25.51 6 25.26 6 25L6 23C6 22.73 5.89 22.48 5.7 22.29C5.51 22.1 5.26 22 5 22L3 22ZM12 23C12 22.2 12.31 21.44 12.87 20.87C13.44 20.31 14.2 20 15 20L17 20C17.79 20 18.55 20.31 19.12 20.87C19.68 21.44 20 22.2 20 23L20 25C20 25.79 19.68 26.55 19.12 27.12C18.55 27.68 17.79 28 17 28L15 28C14.2 28 13.44 27.68 12.87 27.12C12.31 26.55 12 25.79 12 25L12 23ZM15 22C14.73 22 14.48 22.1 14.29 22.29C14.1 22.48 14 22.73 14 23L14 25C14 25.26 14.1 25.51 14.29 25.7C14.48 25.89 14.73 26 15 26L17 26C17.26 26 17.51 25.89 17.7 25.7C17.89 25.51 18 25.26 18 25L18 23C18 22.73 17.89 22.48 17.7 22.29C17.51 22.1 17.26 22 17 22L15 22ZM24 23C24 22.2 24.31 21.44 24.87 20.87C25.44 20.31 26.2 20 27 20L29 20C29.79 20 30.55 20.31 31.12 20.87C31.68 21.44 32 22.2 32 23L32 25C32 25.79 31.68 26.55 31.12 27.12C30.55 27.68 29.79 28 29 28L27 28C26.2 28 25.44 27.68 24.87 27.12C24.31 26.55 24 25.79 24 25L24 23ZM27 22C26.73 22 26.48 22.1 26.29 22.29C26.1 22.48 26 22.73 26 23L26 25C26 25.26 26.1 25.51 26.29 25.7C26.48 25.89 26.73 26 27 26L29 26C29.26 26 29.51 25.89 29.7 25.7C29.89 25.51 30 25.26 30 25L30 23C30 22.73 29.89 22.48 29.7 22.29C29.51 22.1 29.26 22 29 22L27 22Z" fill="#101828" fill-opacity="1.000000" fill-rule="evenodd"/>
	</g>
</svg>
