<svg width="24.000000" height="24.000000" viewBox="0 0 24 24" fill="none" xmlns="http://www.w3.org/2000/svg" xmlns:xlink="http://www.w3.org/1999/xlink">
	<desc>
			Created with Pixso.
	</desc>
	<defs>
		<clipPath id="clip12068_536">
			<rect rx="-0.500000" width="23.000000" height="23.000000" transform="translate(0.500000 0.500000)" fill="white" fill-opacity="0"/>
		</clipPath>
	</defs>
	<rect rx="-0.500000" width="23.000000" height="23.000000" transform="translate(0.500000 0.500000)" fill="#FFFFFF" fill-opacity="0"/>
	<g clip-path="url(#clip12068_536)">
		<path d="M12 9.85L10.65 7.17C10.32 6.5 9.74 5.55 8.93 4.77C8.12 4.01 7.16 3.5 6 3.5C3.48 3.5 1.5 5.48 1.5 7.88C1.5 9.69 2.33 10.97 4.3 12.93C4.8 13.43 5.38 13.97 6.02 14.57C7.68 16.13 9.75 18.07 12 20.67C14.25 18.07 16.31 16.13 17.97 14.57C18.61 13.97 19.19 13.43 19.69 12.93C21.66 10.97 22.5 9.69 22.5 7.88C22.5 5.48 20.51 3.5 18 3.5C16.83 3.5 15.87 4.01 15.06 4.77C14.25 5.55 13.67 6.5 13.34 7.17L12 9.85ZM12.58 22.29C12.51 22.37 12.42 22.44 12.32 22.49C12.22 22.54 12.11 22.56 12 22.56C11.88 22.56 11.77 22.54 11.67 22.49C11.57 22.44 11.48 22.37 11.41 22.29C9.01 19.43 6.83 17.39 5.04 15.72C1.95 12.81 0 10.98 0 7.88C0 4.63 2.68 2 6 2C8.39 2 10.07 3.57 11.1 5.01C11.49 5.55 11.79 6.08 12 6.5C12.25 5.98 12.55 5.48 12.89 5.01C13.92 3.57 15.6 2 18 2C21.31 2 24 4.63 24 7.88C24 10.98 22.05 12.81 18.95 15.72C17.16 17.4 14.98 19.44 12.58 22.29Z" fill="#101828" fill-opacity="1.000000" fill-rule="nonzero"/>
	</g>
</svg>
