<svg width="24.000000" height="20.565125" viewBox="0 0 24 20.5651" fill="none" xmlns="http://www.w3.org/2000/svg" xmlns:xlink="http://www.w3.org/1999/xlink">
	<desc>
			Created with Pixso.
	</desc>
	<defs/>
	<path id="Vector" d="M12 7.85L10.65 5.17C10.32 4.5 9.74 3.55 8.93 2.77C8.12 2.01 7.16 1.5 6 1.5C3.48 1.5 1.5 3.48 1.5 5.88C1.5 7.69 2.33 8.97 4.3 10.93C4.8 11.43 5.38 11.97 6.02 12.57C7.68 14.13 9.75 16.07 12 18.67C14.25 16.07 16.31 14.13 17.97 12.57C18.61 11.97 19.19 11.43 19.69 10.93C21.66 8.97 22.5 7.69 22.5 5.88C22.5 3.48 20.51 1.5 18 1.5C16.83 1.5 15.87 2.01 15.06 2.77C14.25 3.55 13.67 4.5 13.34 5.17L12 7.85ZM12.58 20.29C12.51 20.37 12.42 20.44 12.32 20.49C12.22 20.54 12.11 20.56 12 20.56C11.88 20.56 11.77 20.54 11.67 20.49C11.57 20.44 11.48 20.37 11.41 20.29C9.01 17.43 6.83 15.39 5.04 13.72C1.95 10.81 0 8.98 0 5.88C0 2.63 2.68 0 6 0C8.39 0 10.07 1.57 11.1 3.01C11.49 3.55 11.79 4.08 12 4.5C12.25 3.98 12.55 3.48 12.89 3.01C13.92 1.57 15.6 0 18 0C21.31 0 24 2.63 24 5.88C24 8.98 22.05 10.81 18.95 13.72C17.16 15.4 14.98 17.44 12.58 20.29Z" fill="#E44848" fill-opacity="1.000000" fill-rule="evenodd"/>
</svg>
