<svg width="32.000000" height="32.000000" viewBox="0 0 32 32" fill="none" xmlns="http://www.w3.org/2000/svg" xmlns:xlink="http://www.w3.org/1999/xlink">
	<desc>
			Created with Pixso.
	</desc>
	<defs>
		<clipPath id="clip12164_573">
			<rect id="cup-hot" rx="-0.500000" width="31.000000" height="31.000000" transform="translate(0.500000 0.500000)" fill="white" fill-opacity="0"/>
		</clipPath>
	</defs>
	<rect id="cup-hot" rx="-0.500000" width="31.000000" height="31.000000" transform="translate(0.500000 0.500000)" fill="#FFFFFF" fill-opacity="0"/>
	<g clip-path="url(#clip12164_573)">
		<path id="Vector" d="M1 12C0.85 12 0.7 12.03 0.56 12.09C0.43 12.16 0.31 12.25 0.22 12.37C0.12 12.49 0.06 12.62 0.02 12.77C-0.01 12.91 -0.01 13.06 0.02 13.21L3.32 28.08C3.57 29.19 4.19 30.18 5.07 30.89C5.96 31.61 7.07 31.99 8.2 32L19.79 32C20.92 31.99 22.03 31.61 22.92 30.89C23.8 30.18 24.42 29.19 24.67 28.08L24.93 26.9C26.46 27.19 28.04 26.87 29.34 26.01C30.64 25.15 31.55 23.82 31.89 22.3C32.23 20.78 31.96 19.19 31.15 17.86C30.33 16.54 29.04 15.58 27.53 15.19L27.97 13.21C28 13.06 28 12.91 27.97 12.77C27.93 12.62 27.87 12.49 27.77 12.37C27.68 12.25 27.56 12.16 27.43 12.09C27.29 12.03 27.14 12 27 12L1 12ZM26 25C25.78 25 25.57 24.98 25.36 24.95L27.1 17.15C28.02 17.42 28.82 18.01 29.34 18.82C29.87 19.63 30.08 20.6 29.95 21.55C29.81 22.5 29.34 23.38 28.61 24.01C27.89 24.64 26.96 24.99 26 25ZM5.28 27.65L2.24 14L25.75 14L22.72 27.65C22.57 28.31 22.2 28.91 21.66 29.33C21.13 29.76 20.47 29.99 19.79 30L8.2 30C7.52 29.99 6.86 29.76 6.33 29.33C5.79 28.91 5.42 28.31 5.28 27.65Z" fill="#101828" fill-opacity="1.000000" fill-rule="evenodd"/>
		<path id="Vector" d="M8.8 1.6L8.79 1.6L8.76 1.64C8.62 1.84 8.48 2.05 8.35 2.26C8.25 2.43 8.15 2.61 8.07 2.8C8.02 2.92 8 2.98 8 3L8 3.01C8.02 3.19 8.08 3.36 8.18 3.51C8.33 3.77 8.54 4.05 8.8 4.4L8.82 4.42C9.05 4.73 9.34 5.11 9.56 5.51C9.78 5.91 10 6.42 10 7C10 7.37 9.87 7.73 9.76 7.98C9.64 8.25 9.51 8.51 9.35 8.76C9.2 9.02 9.03 9.28 8.85 9.52L8.81 9.57L8.8 9.59L8.8 9.59C8.64 9.81 8.4 9.95 8.14 9.98C7.88 10.02 7.61 9.95 7.4 9.8C7.18 9.64 7.04 9.4 7.01 9.14C6.97 8.87 7.04 8.61 7.19 8.39L7.2 8.39L7.23 8.35C7.37 8.15 7.51 7.94 7.64 7.73C7.74 7.56 7.84 7.38 7.92 7.2C7.97 7.08 7.99 7.01 7.99 6.99C7.97 6.81 7.91 6.64 7.81 6.49C7.63 6.17 7.42 5.88 7.19 5.6L7.17 5.57C6.9 5.23 6.66 4.86 6.43 4.48C6.16 4.03 6.01 3.52 6 3C6 2.62 6.12 2.26 6.23 2.01C6.35 1.73 6.5 1.46 6.64 1.23C6.8 0.97 6.96 0.72 7.14 0.47L7.19 0.4C7.35 0.18 7.59 0.04 7.85 0.01C8.11 -0.03 8.38 0.04 8.59 0.19C8.81 0.35 8.95 0.59 8.98 0.85C9.02 1.12 8.95 1.38 8.8 1.6ZM14.8 1.6L14.79 1.6L14.76 1.64C14.62 1.84 14.48 2.05 14.35 2.26C14.25 2.43 14.15 2.61 14.07 2.8C14.02 2.92 14 2.98 14 3L14 3.01C14.02 3.19 14.08 3.36 14.18 3.51C14.33 3.77 14.54 4.05 14.8 4.4L14.82 4.42C15.05 4.73 15.34 5.11 15.56 5.51C15.78 5.91 16 6.42 16 7C16 7.37 15.87 7.73 15.76 7.98C15.64 8.25 15.51 8.51 15.35 8.76C15.2 9.02 15.03 9.28 14.85 9.52L14.81 9.57L14.8 9.59L14.8 9.59C14.64 9.81 14.4 9.95 14.14 9.98C13.88 10.02 13.61 9.95 13.4 9.8C13.18 9.64 13.04 9.4 13.01 9.14C12.97 8.87 13.04 8.61 13.2 8.39L13.2 8.39L13.23 8.35C13.37 8.15 13.51 7.94 13.64 7.73C13.74 7.56 13.84 7.38 13.92 7.2C13.97 7.08 13.99 7.01 13.99 6.99C13.97 6.81 13.91 6.64 13.81 6.49C13.63 6.17 13.42 5.88 13.2 5.6L13.17 5.57C12.9 5.23 12.66 4.86 12.43 4.48C12.16 4.03 12.01 3.52 12 3C12 2.62 12.12 2.26 12.23 2.01C12.35 1.73 12.5 1.46 12.64 1.23C12.8 0.97 12.96 0.72 13.14 0.47L13.19 0.4C13.35 0.18 13.59 0.04 13.85 0.01C14.11 -0.03 14.38 0.04 14.59 0.19C14.81 0.35 14.95 0.59 14.98 0.85C15.02 1.12 14.95 1.38 14.8 1.6ZM20.8 1.6L20.79 1.6L20.76 1.64C20.62 1.84 20.48 2.05 20.35 2.26C20.25 2.43 20.15 2.61 20.07 2.8C20.02 2.92 20 2.98 20 3L20 3.01C20.02 3.19 20.08 3.36 20.18 3.51C20.33 3.77 20.54 4.05 20.8 4.4L20.82 4.42C21.05 4.73 21.34 5.11 21.56 5.51C21.78 5.91 22 6.42 22 7C22 7.37 21.87 7.73 21.76 7.98C21.64 8.25 21.51 8.51 21.35 8.76C21.2 9.02 21.03 9.28 20.85 9.52L20.81 9.57L20.8 9.59L20.8 9.59C20.64 9.81 20.4 9.95 20.14 9.98C19.88 10.02 19.61 9.95 19.4 9.8C19.18 9.64 19.04 9.4 19.01 9.14C18.97 8.87 19.04 8.61 19.2 8.39L19.2 8.39L19.23 8.35C19.37 8.15 19.51 7.94 19.64 7.73C19.74 7.56 19.84 7.38 19.92 7.2C19.97 7.08 19.99 7.01 19.99 6.99C19.97 6.81 19.91 6.64 19.81 6.49C19.63 6.17 19.42 5.88 19.2 5.6L19.17 5.57C18.9 5.23 18.66 4.86 18.43 4.48C18.16 4.03 18.01 3.52 18 3C18 2.62 18.12 2.26 18.23 2.01C18.35 1.73 18.5 1.46 18.64 1.23C18.8 0.97 18.96 0.72 19.14 0.47L19.19 0.4C19.35 0.18 19.59 0.04 19.85 0.01C20.11 -0.03 20.38 0.04 20.59 0.19C20.81 0.35 20.95 0.59 20.98 0.85C21.02 1.12 20.95 1.38 20.8 1.6Z" fill="#101828" fill-opacity="1.000000" fill-rule="nonzero"/>
	</g>
</svg>
