<svg width="20.000000" height="20.000000" viewBox="0 0 20 20" fill="none" xmlns="http://www.w3.org/2000/svg" xmlns:xlink="http://www.w3.org/1999/xlink">
	<desc>
			Created with Pixso.
	</desc>
	<defs>
		<clipPath id="clip2_405">
			<rect rx="-0.500000" width="19.000000" height="19.000000" transform="translate(0.500000 0.500000)" fill="white" fill-opacity="0"/>
		</clipPath>
	</defs>
	<rect rx="-0.500000" width="19.000000" height="19.000000" transform="translate(0.500000 0.500000)" fill="#FFFFFF" fill-opacity="0"/>
	<g clip-path="url(#clip2_405)">
		<path d="M19.77 0.14C19.84 0.19 19.9 0.27 19.93 0.35C19.97 0.44 20 0.53 20 0.62L20 18.12C20 18.26 19.94 18.4 19.85 18.52C19.76 18.63 19.63 18.7 19.49 18.73L13.24 19.98C13.16 20 13.08 20 13 19.98L6.87 18.76L0.74 19.98C0.65 20 0.56 20 0.47 19.98C0.38 19.95 0.3 19.91 0.22 19.85C0.15 19.79 0.09 19.72 0.06 19.64C0.02 19.55 0 19.46 0 19.37L0 1.87C0 1.73 0.05 1.59 0.14 1.47C0.23 1.36 0.36 1.29 0.5 1.26L6.75 0.01C6.83 -0.01 6.91 -0.01 6.99 0.01L13.12 1.23L19.25 0.01C19.34 -0.01 19.43 -0.01 19.52 0.01C19.61 0.04 19.69 0.08 19.77 0.14ZM12.5 2.38L7.5 1.38L7.5 17.61L12.5 18.61L12.5 2.38ZM13.75 18.61L18.75 17.61L18.75 1.38L13.75 2.38L13.75 18.61ZM6.25 17.61L6.25 1.38L1.25 2.38L1.25 18.61L6.25 17.61Z" fill="#6C717B" fill-opacity="1.000000" fill-rule="evenodd"/>
	</g>
</svg>
