<svg width="20.000000" height="20.000000" viewBox="0 0 20 20" fill="none" xmlns="http://www.w3.org/2000/svg" xmlns:xlink="http://www.w3.org/1999/xlink">
	<desc>
			Created with Pixso.
	</desc>
	<defs>
		<clipPath id="clip12138_468">
			<rect rx="-0.500000" width="19.000000" height="19.000000" transform="translate(0.500000 0.500000)" fill="white" fill-opacity="0"/>
		</clipPath>
	</defs>
	<rect rx="-0.500000" width="19.000000" height="19.000000" transform="translate(0.500000 0.500000)" fill="#FFFFFF" fill-opacity="0"/>
	<g clip-path="url(#clip12138_468)">
		<path d="M18.75 17.5C18.75 17.5 20 17.5 20 16.25C20 15 18.75 11.25 13.75 11.25C8.75 11.25 7.5 15 7.5 16.25C7.5 17.5 8.75 17.5 8.75 17.5L18.75 17.5ZM8.77 16.25L8.75 16.24C8.75 15.91 8.95 14.95 9.7 14.09C10.39 13.28 11.6 12.5 13.75 12.5C15.89 12.5 17.1 13.28 17.79 14.09C18.54 14.95 18.74 15.91 18.75 16.24L18.74 16.24L18.72 16.25L8.77 16.25ZM13.75 8.75C14.41 8.75 15.04 8.48 15.51 8.01C15.98 7.54 16.25 6.91 16.25 6.25C16.25 5.58 15.98 4.95 15.51 4.48C15.04 4.01 14.41 3.75 13.75 3.75C13.08 3.75 12.45 4.01 11.98 4.48C11.51 4.95 11.25 5.58 11.25 6.25C11.25 6.91 11.51 7.54 11.98 8.01C12.45 8.48 13.08 8.75 13.75 8.75ZM17.5 6.25C17.5 6.74 17.4 7.23 17.21 7.68C17.02 8.14 16.74 8.55 16.4 8.9C16.05 9.24 15.64 9.52 15.18 9.71C14.73 9.9 14.24 10 13.75 10C13.25 10 12.76 9.9 12.31 9.71C11.86 9.52 11.44 9.24 11.09 8.9C10.75 8.55 10.47 8.14 10.28 7.68C10.09 7.23 10 6.74 10 6.25C10 5.25 10.39 4.3 11.09 3.59C11.8 2.89 12.75 2.5 13.75 2.5C14.74 2.5 15.69 2.89 16.4 3.59C17.1 4.3 17.5 5.25 17.5 6.25ZM8.67 11.6C8.16 11.44 7.65 11.34 7.13 11.29C6.83 11.26 6.54 11.24 6.25 11.25C1.25 11.25 0 15 0 16.25C0 17.08 0.41 17.5 1.25 17.5L6.51 17.5C6.33 17.1 6.24 16.68 6.25 16.25C6.25 14.98 6.72 13.69 7.61 12.62C7.91 12.25 8.26 11.9 8.67 11.6ZM6.14 12.5C5.41 13.61 5.01 14.91 5 16.25L1.25 16.25C1.25 15.92 1.45 14.96 2.2 14.09C2.88 13.3 4.06 12.52 6.14 12.5L6.14 12.5ZM1.87 6.87C1.87 5.88 2.27 4.92 2.97 4.22C3.67 3.52 4.63 3.12 5.62 3.12C6.61 3.12 7.57 3.52 8.27 4.22C8.97 4.92 9.37 5.88 9.37 6.87C9.37 7.86 8.97 8.82 8.27 9.52C7.57 10.22 6.61 10.62 5.62 10.62C4.63 10.62 3.67 10.22 2.97 9.52C2.27 8.82 1.87 7.86 1.87 6.87ZM5.62 4.37C4.96 4.37 4.32 4.63 3.85 5.1C3.38 5.57 3.12 6.21 3.12 6.87C3.12 7.53 3.38 8.17 3.85 8.64C4.32 9.11 4.96 9.37 5.62 9.37C6.28 9.37 6.92 9.11 7.39 8.64C7.86 8.17 8.12 7.53 8.12 6.87C8.12 6.21 7.86 5.57 7.39 5.1C6.92 4.63 6.28 4.37 5.62 4.37Z" fill="#101828" fill-opacity="1.000000" fill-rule="nonzero"/>
	</g>
</svg>
