<svg width="32.000000" height="32.000000" viewBox="0 0 32 32" fill="none" xmlns="http://www.w3.org/2000/svg" xmlns:xlink="http://www.w3.org/1999/xlink">
	<desc>
			Created with Pixso.
	</desc>
	<defs>
		<clipPath id="clip12164_578">
			<rect id="tv" rx="-0.500000" width="31.000000" height="31.000000" transform="translate(0.500000 0.500000)" fill="white" fill-opacity="0"/>
		</clipPath>
	</defs>
	<rect id="tv" rx="-0.500000" width="31.000000" height="31.000000" transform="translate(0.500000 0.500000)" fill="#FFFFFF" fill-opacity="0"/>
	<g clip-path="url(#clip12164_578)">
		<path id="Vector" d="M0 8C0 8 0 4 4 4L28 4C28 4 32 4 32 8L32 20C32 20 32 24 28 24L20 24C20 25.33 20.16 26.33 20.5 27L22 27C22.26 27 22.51 27.1 22.7 27.29C22.89 27.48 23 27.73 23 28C23 28.26 22.89 28.51 22.7 28.7C22.51 28.89 22.26 29 22 29L10 29C9.73 29 9.48 28.89 9.29 28.7C9.1 28.51 9 28.26 9 28C9 27.73 9.1 27.48 9.29 27.29C9.48 27.1 9.73 27 10 27L11.5 27C11.83 26.33 12 25.33 12 24L4 24C4 24 0 24 0 20L0 8ZM2.79 6.28C2.57 6.44 2.4 6.65 2.28 6.89C2.11 7.24 2.02 7.62 2 8.02L2 20C2 20.65 2.15 21 2.29 21.2C2.42 21.41 2.63 21.58 2.89 21.71C3.23 21.87 3.59 21.97 3.96 21.99L4.02 22L28 22C28.64 22 29 21.84 29.2 21.71C29.42 21.55 29.59 21.34 29.71 21.1C29.87 20.76 29.97 20.4 29.99 20.03L30 19.98L30 8C30 7.35 29.84 6.99 29.71 6.79C29.55 6.57 29.34 6.4 29.1 6.28C28.75 6.11 28.37 6.02 27.98 6L4 6C3.35 6 2.99 6.15 2.79 6.28Z" fill="#101828" fill-opacity="1.000000" fill-rule="nonzero"/>
	</g>
</svg>
