<svg width="20.000000" height="20.000000" viewBox="0 0 20 20" fill="none" xmlns="http://www.w3.org/2000/svg" xmlns:xlink="http://www.w3.org/1999/xlink">
	<desc>
			Created with Pixso.
	</desc>
	<defs>
		<clipPath id="clip12071_579">
			<rect rx="-0.500000" width="19.000000" height="19.000000" transform="translate(0.500000 0.500000)" fill="white" fill-opacity="0"/>
		</clipPath>
	</defs>
	<rect rx="-0.500000" width="19.000000" height="19.000000" transform="translate(0.500000 0.500000)" fill="#FFFFFF" fill-opacity="0"/>
	<g clip-path="url(#clip12071_579)">
		<path d="M8.75 3.12C8.75 2.95 8.81 2.8 8.93 2.68C9.05 2.56 9.2 2.5 9.37 2.5L18.12 2.5C18.29 2.5 18.44 2.56 18.56 2.68C18.68 2.8 18.75 2.95 18.75 3.12L18.75 4.37C18.75 4.54 18.68 4.69 18.56 4.81C18.44 4.93 18.29 5 18.12 5L9.37 5C9.2 5 9.05 4.93 8.93 4.81C8.81 4.69 8.75 4.54 8.75 4.37L8.75 3.12ZM0 15C0 14 0.39 13.05 1.09 12.34C1.8 11.64 2.75 11.25 3.75 11.25C4.74 11.25 5.69 11.64 6.4 12.34C7.1 13.05 7.5 14 7.5 15C7.5 15.99 7.1 16.94 6.4 17.65C5.69 18.35 4.74 18.75 3.75 18.75C2.75 18.75 1.8 18.35 1.09 17.65C0.39 16.94 0 15.99 0 15ZM8.75 13.12C8.75 12.95 8.81 12.8 8.93 12.68C9.05 12.56 9.2 12.5 9.37 12.5L18.12 12.5C18.29 12.5 18.44 12.56 18.56 12.68C18.68 12.8 18.75 12.95 18.75 13.12L18.75 14.37C18.75 14.54 18.68 14.69 18.56 14.81C18.44 14.93 18.29 15 18.12 15L9.37 15C9.2 15 9.05 14.93 8.93 14.81C8.81 14.69 8.75 14.54 8.75 14.37L8.75 13.12ZM8.75 6.87C8.75 6.7 8.81 6.55 8.93 6.43C9.05 6.31 9.2 6.25 9.37 6.25L15.62 6.25C15.79 6.25 15.94 6.31 16.06 6.43C16.18 6.55 16.25 6.7 16.25 6.87C16.25 7.04 16.18 7.19 16.06 7.31C15.94 7.43 15.79 7.5 15.62 7.5L9.37 7.5C9.2 7.5 9.05 7.43 8.93 7.31C8.81 7.19 8.75 7.04 8.75 6.87ZM8.75 16.87C8.75 16.7 8.81 16.55 8.93 16.43C9.05 16.31 9.2 16.25 9.37 16.25L15.62 16.25C15.79 16.25 15.94 16.31 16.06 16.43C16.18 16.55 16.25 16.7 16.25 16.87C16.25 17.04 16.18 17.19 16.06 17.31C15.94 17.43 15.79 17.5 15.62 17.5L9.37 17.5C9.2 17.5 9.05 17.43 8.93 17.31C8.81 17.19 8.75 17.04 8.75 16.87ZM3.75 1.25C3.25 1.25 2.76 1.34 2.31 1.53C1.85 1.72 1.44 2 1.09 2.34C0.75 2.69 0.47 3.1 0.28 3.56C0.09 4.01 0 4.5 0 5C0 5.49 0.09 5.98 0.28 6.43C0.47 6.89 0.75 7.3 1.09 7.65C1.44 7.99 1.85 8.27 2.31 8.46C2.76 8.65 3.25 8.75 3.75 8.75C4.74 8.75 5.69 8.35 6.4 7.65C7.1 6.94 7.5 5.99 7.5 5C7.5 4 7.1 3.05 6.4 2.34C5.69 1.64 4.74 1.25 3.75 1.25ZM3.75 6.87C3.25 6.87 2.77 6.67 2.42 6.32C2.07 5.97 1.87 5.49 1.87 5C1.87 4.5 2.07 4.02 2.42 3.67C2.77 3.32 3.25 3.12 3.75 3.12C4.24 3.12 4.72 3.32 5.07 3.67C5.42 4.02 5.62 4.5 5.62 5C5.62 5.49 5.42 5.97 5.07 6.32C4.72 6.67 4.24 6.87 3.75 6.87Z" fill="#101828" fill-opacity="1.000000" fill-rule="nonzero"/>
	</g>
</svg>
